<?xml version="1.0" standalone="no"?>
<!DOCTYPE svg PUBLIC "-//W3C//DTD SVG 20010904//EN"
 "http://www.w3.org/TR/2001/REC-SVG-20010904/DTD/svg10.dtd">
<svg version="1.0" xmlns="http://www.w3.org/2000/svg"
 width="700.000000pt" height="700.000000pt" viewBox="0 0 700.000000 700.000000"
 preserveAspectRatio="xMidYMid meet">
<metadata>
Created by potrace 1.14, written by Peter Selinger 2001-2017
</metadata>
<g transform="translate(0.000000,700.000000) scale(0.100000,-0.100000)"
fill="#000000" stroke="none">
<path d="M2495 6990 c-536 -7 -568 -10 -760 -65 -120 -35 -290 -118 -397 -194
-108 -78 -281 -255 -343 -350 -63 -97 -151 -282 -169 -356 -30 -118 -36 -250
-46 -978 l-10 -738 -43 -57 c-24 -31 -83 -118 -132 -192 -48 -74 -124 -182
-170 -240 -166 -212 -302 -446 -355 -610 -11 -36 -32 -132 -46 -213 l-26 -149
17 -130 c28 -222 66 -330 183 -525 80 -134 333 -462 412 -537 288 -271 633
-323 1103 -166 65 22 123 37 128 34 5 -3 37 -42 70 -87 175 -233 370 -365 627
-424 106 -24 588 -24 701 1 l73 15 62 -55 c131 -120 321 -183 637 -212 l76 -7
273 -290 c324 -343 400 -419 443 -442 28 -16 63 -18 307 -18 316 0 353 6 401
64 58 71 60 109 12 329 -20 94 -20 94 52 112 394 101 718 274 956 510 227 226
342 467 342 720 0 152 -31 251 -123 396 -16 27 -30 53 -30 59 0 6 28 49 63 96
153 209 236 490 208 707 -6 50 -22 131 -36 179 -32 113 -129 307 -202 404
-159 211 -621 694 -858 897 -151 130 -334 267 -473 355 -146 93 -500 266 -654
321 -236 84 -517 148 -738 167 -155 13 -659 6 -784 -11 -324 -45 -760 -165
-1085 -299 -158 -65 -220 -81 -317 -81 -99 0 -233 -28 -350 -72 l-91 -35 -7
105 c-3 58 -6 288 -6 511 l0 405 59 121 c119 240 301 382 557 434 91 19 151
21 680 27 656 7 2393 -11 2469 -26 27 -6 90 -30 140 -54 168 -82 298 -205 371
-351 63 -127 66 -148 71 -498 l5 -318 52 -39 c80 -61 123 -73 256 -74 104 -1
120 1 170 25 31 14 73 41 95 60 l38 34 -6 305 c-4 184 -12 343 -21 400 -72
466 -424 866 -903 1024 -199 66 -213 67 -858 76 -660 9 -1325 9 -2070 0z
m1519 -2060 c55 -5 108 -12 118 -16 30 -9 21 -37 -33 -99 -121 -142 -170 -248
-149 -327 23 -85 122 -150 232 -152 67 -1 81 9 144 104 77 117 208 246 311
305 31 18 34 18 90 1 117 -37 410 -195 606 -328 67 -46 69 -57 29 -143 -40
-84 -72 -118 -173 -186 -49 -33 -96 -71 -106 -85 -9 -15 -19 -52 -21 -84 -11
-155 115 -246 270 -195 115 37 274 166 354 286 25 38 48 69 51 69 22 0 344
-340 616 -649 157 -179 227 -337 227 -516 0 -195 -67 -333 -263 -543 -110
-117 -121 -139 -114 -213 7 -75 25 -102 111 -170 126 -98 168 -192 145 -323
-40 -233 -283 -484 -629 -650 -152 -73 -238 -99 -466 -145 -105 -22 -208 -47
-229 -57 -20 -9 -47 -33 -60 -53 -39 -59 -41 -98 -9 -232 30 -130 29 -139 -25
-139 -42 0 -84 36 -257 217 -280 296 -487 504 -518 520 -19 10 -79 18 -180 23
-153 9 -282 30 -346 56 -42 18 -93 66 -122 114 -33 56 -79 99 -117 112 -43 14
-155 14 -194 -1 -35 -14 -233 -47 -367 -62 -88 -9 -120 -9 -196 5 -120 20
-239 59 -290 93 -84 57 -224 202 -224 233 0 11 29 43 68 75 105 87 217 219
264 311 l41 80 -29 54 c-41 77 -102 114 -199 118 -85 5 -120 -10 -162 -65
-105 -138 -217 -223 -428 -324 -240 -115 -365 -149 -548 -149 -100 0 -119 3
-163 25 -93 46 -292 251 -446 458 -80 107 -159 262 -184 362 -24 95 -24 286 0
374 25 92 47 142 60 138 6 -2 36 -44 66 -93 124 -202 319 -357 532 -422 90
-28 281 -56 326 -47 90 17 152 72 172 153 30 127 -65 232 -210 232 -58 0 -186
36 -252 72 -256 136 -351 474 -212 756 152 310 445 553 815 676 147 49 350 90
407 82 99 -13 204 -85 283 -193 59 -79 139 -113 234 -98 73 10 140 83 159 170
9 42 -36 131 -113 225 -33 41 -61 80 -61 86 0 38 469 147 746 174 60 5 127 12
149 14 59 6 355 -3 469 -14z"/>
<path d="M2090 3823 c-253 -38 -383 -70 -434 -106 -35 -25 -65 -90 -66 -141 0
-55 35 -123 79 -151 68 -45 107 -47 305 -14 304 51 366 90 366 229 0 59 -15
92 -62 138 -48 46 -101 59 -188 45z"/>
<path d="M3405 3593 c-116 -42 -190 -107 -237 -209 -19 -40 -23 -66 -23 -144
0 -120 19 -165 109 -258 l64 -67 4 -245 c5 -255 9 -283 51 -328 99 -106 298
-76 347 53 6 17 16 142 22 280 l10 250 54 57 c82 86 104 141 104 264 0 87 -3
107 -25 151 -33 65 -120 147 -192 180 -76 35 -214 42 -288 16z"/>
<path d="M5435 3002 c-112 -39 -220 -124 -300 -237 -82 -116 -117 -211 -145
-392 -10 -69 -20 -126 -22 -127 -1 -2 -50 -17 -108 -35 -199 -62 -331 -150
-411 -275 -57 -87 -80 -157 -80 -243 0 -98 18 -128 100 -170 140 -73 252 -24
296 130 28 99 93 152 230 192 l60 17 24 -34 c14 -18 57 -64 96 -103 102 -101
220 -155 339 -155 111 0 186 58 200 154 15 101 -34 174 -145 215 -79 29 -103
50 -142 126 -30 58 -32 64 -30 172 5 238 57 346 198 408 75 33 121 67 140 105
31 60 9 177 -41 222 -55 49 -167 62 -259 30z"/>
</g>
</svg>
